<?xml version="1.0" encoding="UTF-8"?>
<svg xmlns="http://www.w3.org/2000/svg" version="1.1" viewBox="0 0 894.7 166.2">
  <defs>
    <style>
      .cls-1 {
        fill: #fff;
      }
    </style>
  </defs>
  <!-- Generator: Adobe Illustrator 28.7.1, SVG Export Plug-In . SVG Version: 1.2.0 Build 142)  -->
  <g>
    <g id="_Слой_1" data-name="Слой_1">
      <polygon points="53 149.5 16.4 86.1 53 22.7 126.3 22.7 162.9 86.1 126.3 149.5 53 149.5"/>
      <g>
        <path class="cls-1" d="M62.8,44.7h12v85.2h-12V44.7ZM68.6,81.9h26.7v11.4h-26.7v-11.4ZM84.7,92.4l10.5-6.2,32.9,43.7h-16.6l-26.8-37.5ZM84.8,83.2l24.7-38.4h15l-33.7,48.9-6-10.5Z"/>
        <path class="cls-1" d="M180.7,127.7c-3.8-2.1-6.6-5.1-8.6-9.1-2-4-3-8.7-3-14.3v-9.9c0-5.5,1-10.2,3-14.2,2-3.9,4.8-6.9,8.6-9s8.3-3.1,13.5-3.1,9.8,1,13.5,3.1,6.6,5,8.6,9c2,3.9,3,8.6,3,14.2v10.1c0,5.5-1,10.3-3,14.2-2,3.9-4.8,6.9-8.6,9-3.8,2.1-8.3,3.1-13.5,3.1s-9.8-1-13.5-3.1ZM203.9,115.5c2.3-2.6,3.4-6.3,3.4-11v-10.1c0-4.7-1.1-8.4-3.4-11s-5.5-3.9-9.7-3.9-7.4,1.3-9.7,3.9-3.4,6.2-3.4,11v10.1c0,4.7,1.1,8.4,3.4,11,2.3,2.6,5.5,3.9,9.7,3.9s7.4-1.3,9.7-3.9Z"/>
        <path class="cls-1" d="M236.3,69.1h12v60.8h-12v-60.8ZM243.7,94.6h37.3v10.8h-37.3v-10.8ZM274.7,69.1h12v60.8h-12v-60.8Z"/>
        <path class="cls-1" d="M305.4,69.1h12v60.8h-12v-60.8ZM312.8,119.1h35.6v10.8h-35.6v-10.8ZM342.1,69.1h12v60.8h-12v-60.8ZM353,119.1h12v26.1h-12v-26.1Z"/>
        <path class="cls-1" d="M387.7,127.6c-4-2.1-7-5.2-9.1-9.3-2.1-4.1-3.1-9-3.1-14.8v-6.9c0-6,1-11.2,3-15.4,2-4.3,4.9-7.5,8.8-9.7,3.8-2.2,8.4-3.3,13.8-3.3s9.4,1.3,13,3.8c3.6,2.5,6.3,6.2,8.2,11,1.9,4.8,2.8,10.6,2.8,17.3v4h-41v-9.6h29.6c-.4-5-1.6-8.8-3.8-11.6-2.2-2.8-5.2-4.1-8.9-4.1s-8,1.5-10.5,4.5c-2.5,3-3.7,7.2-3.7,12.6v7.7c0,5,1.3,8.9,4,11.6,2.7,2.7,6.4,4,11.3,4s4.8-.5,7.2-1.5c2.4-1,4.5-2.3,6.4-4.1l7.9,7.9c-3,2.9-6.4,5.1-10.1,6.7s-7.5,2.4-11.3,2.4c-5.6,0-10.4-1.1-14.4-3.2Z"/>
        <path class="cls-1" d="M441.6,69.1h12v60.8h-12v-60.8ZM449,69.1h37.3v11.4h-37.3v-11.4ZM480,69.1h12v60.8h-12v-60.8Z"/>
        <path class="cls-1" d="M503.7,69.1h47.2v10.8h-47.2v-10.8ZM521.3,75.5h12v54.4h-12v-54.4Z"/>
        <path class="cls-1" d="M573,127.7c-3.9-2.1-6.9-5.1-9-9-2.1-3.9-3.1-8.7-3.1-14.3v-10c0-5.5,1-10.2,3.1-14.1,2.1-3.9,5.1-6.9,9-8.9s8.7-3.1,14.2-3.1,6.1.4,8.9,1.1c2.8.8,5.3,1.9,7.5,3.3,2.2,1.4,4.1,3.2,5.6,5.3l-8.6,7.7c-1.7-2-3.7-3.5-6-4.5-2.3-1.1-4.7-1.6-7.2-1.6-4.6,0-8.2,1.3-10.7,3.9-2.5,2.6-3.8,6.2-3.8,10.9v10c0,4.8,1.3,8.5,3.8,11.1,2.5,2.6,6.1,3.9,10.8,3.9s5-.6,7.3-1.7c2.3-1.1,4.3-2.7,6-4.8l8.6,8.3c-1.5,2-3.4,3.8-5.6,5.2-2.2,1.4-4.7,2.5-7.5,3.3-2.8.7-5.8,1.1-8.9,1.1-5.5,0-10.3-1-14.2-3.1Z"/>
        <path class="cls-1" d="M614.8,69.1h47.2v10.8h-47.2v-10.8ZM632.4,75.5h12v54.4h-12v-54.4Z"/>
        <path class="cls-1" d="M677.8,69.1h12v85.5h-12v-85.5ZM695.2,128.1c-2.8-1.8-4.9-4.4-6.2-7.7l.8-12.7c0,2.6.5,4.8,1.4,6.7.9,1.8,2.3,3.2,4.1,4.2,1.8,1,3.9,1.5,6.5,1.5,3.9,0,7-1.2,9.2-3.6s3.3-5.8,3.3-10.2v-13.2c0-4.5-1.1-7.9-3.3-10.4s-5.2-3.7-9.2-3.7-4.7.5-6.5,1.4c-1.8.9-3.1,2.3-4.1,4.1s-1.4,4-1.4,6.5l-1.2-11.7c1.8-3.6,4.2-6.3,7.2-8.2,3-1.9,6.3-2.9,9.9-2.9s8,1,11,2.9c3.1,1.9,5.4,4.8,7,8.5,1.6,3.7,2.4,8.2,2.4,13.4v13.2c0,5.2-.8,9.6-2.5,13.2-1.6,3.7-4,6.5-7.2,8.4s-7,2.9-11.4,2.9-7.1-.9-9.9-2.7Z"/>
        <path class="cls-1" d="M752.9,127.7c-3.8-2.1-6.6-5.1-8.6-9.1-2-4-3-8.7-3-14.3v-9.9c0-5.5,1-10.2,3-14.2,2-3.9,4.8-6.9,8.6-9s8.3-3.1,13.5-3.1,9.8,1,13.5,3.1,6.6,5,8.6,9c2,3.9,3,8.6,3,14.2v10.1c0,5.5-1,10.3-3,14.2-2,3.9-4.8,6.9-8.6,9-3.8,2.1-8.3,3.1-13.5,3.1s-9.8-1-13.5-3.1ZM776.1,115.5c2.3-2.6,3.4-6.3,3.4-11v-10.1c0-4.7-1.1-8.4-3.4-11s-5.5-3.9-9.7-3.9-7.4,1.3-9.7,3.9-3.4,6.2-3.4,11v10.1c0,4.7,1.1,8.4,3.4,11,2.3,2.6,5.5,3.9,9.7,3.9s7.4-1.3,9.7-3.9Z"/>
        <path class="cls-1" d="M846.7,129.9v-43.2l1.4,1.5-29.2,41.7h-10.4v-60.8h11.8v44.2l-1.4-1.5,29.4-42.7h10.3v60.8h-11.8ZM819.9,52.3c-2.9-3.5-4.4-8.7-4.4-15.7h9.6c0,3.9.7,6.8,2,8.8,1.3,1.9,3.3,2.9,5.9,2.9h1.1c2.6,0,4.6-1,5.9-2.9,1.3-1.9,2-4.9,2-8.8h9.6c0,7-1.5,12.2-4.4,15.7-2.9,3.5-7.3,5.2-13.1,5.2h-1.1c-5.8,0-10.2-1.7-13.1-5.2Z"/>
      </g>
    </g>
  </g>
</svg>